<svg xmlns="http://www.w3.org/2000/svg" xmlns:xlink="http://www.w3.org/1999/xlink" width="232" height="40.213" viewBox="0 0 232 40.213">
  <defs>
    <clipPath id="clip-path">
      <rect id="長方形_93" data-name="長方形 93" width="232" height="40.213" transform="translate(164 262)" fill="none" stroke="#707070" stroke-width="1"/>
    </clipPath>
  </defs>
  <g id="header_logo" transform="translate(-164 -262)" clip-path="url(#clip-path)">
    <g id="グループ_332" data-name="グループ 332" transform="translate(164.928 262.929)">
      <path id="パス_25" data-name="パス 25" d="M9.546-114.063,24.5-90.849c2.234,3.5,3.691,5.925,5.1,8.4.1.146.243.194.534.194l3.642-1.554c-.049-2.768-.1-4.808-.049-8.256l.194-15.1c.049-4.662.534-7.868,1.748-9.616a4.444,4.444,0,0,1,3.108-1.845c.437-.049.486-.146.486-.486s-.049-.389-.486-.389c-1.6.1-4.079.194-5.974.194-1.8,0-4.614-.1-6.313-.194-.437-.049-.486.049-.486.437,0,.34.049.389.486.437a5.66,5.66,0,0,1,4.128,1.943c1.263,1.651,1.457,4.759,1.457,9.519v10.636l.049,5.488c-1.166-1.894-2.283-3.788-3.642-5.974L18.142-113.238c-1.311-2.088-2.477-4.177-3.594-6.119-2.331.049-4.274.049-5.876.049-1.457,0-4.371-.1-6.071-.194-.437-.049-.486.049-.486.437,0,.34.049.389.486.437,3.74.243,4.759,1.506,4.759,3.254v1.214L7.118-95.123c-.049,4.225-.34,7.188-1.408,8.985A4.509,4.509,0,0,1,2.213-84c-.437.049-.486.1-.486.486,0,.34.049.389.486.389,1.943-.1,4.079-.146,6.022-.146s4.322.049,6.459.146c.486,0,.534-.049.534-.389,0-.389-.049-.437-.534-.486-2.137-.243-3.5-.923-4.274-2.185-1.068-1.7-1.214-4.614-1.263-8.936l-.194-18.94Z" transform="translate(-1.727 120.487)" fill="#fff"/>
      <path id="パス_26" data-name="パス 26" d="M24.2-122.146c-9.616,0-17.921,7.868-17.921,19.232S14.439-84.071,24.1-84.071s17.921-7.916,17.921-19.28S33.817-122.146,24.2-122.146Zm-.049,1.117c5.876,0,9.664,5.974,9.664,17.921s-3.74,17.921-9.664,17.921-9.665-5.974-9.665-17.921S18.276-121.029,24.152-121.029Z" transform="translate(102.467 122.146)" fill="#fff"/>
      <path id="パス_27" data-name="パス 27" d="M14.134-101.276c.728.049,1.36.049,1.845.049h1.6L23.9-88.455c.923,1.845,1.554,3.254,2.331,5.148,1.6-.049,2.962-.049,4.468-.049s3.74.049,5.925.146c.291,0,.34-.049.34-.34,0-.389-.049-.437-.34-.486-2.768-.34-3.157-.534-5.148-4.371L24.284-102.3c5.294-1.36,8.013-4.468,8.013-8.256,0-5.585-3.982-9.082-14.424-9.082-2.185,0-4.419.194-7.139.194-2.671,0-5.925-.049-8.208-.146-.437,0-.486.049-.486.437,0,.34.049.389.486.437,4.371.291,4.905,1.02,4.905,4.468v25.691c0,3.448-.583,4.225-4.614,4.468-.389,0-.437.049-.437.486,0,.34.049.389.486.389,2.088-.1,5.245-.146,7.868-.146,2.671,0,5.731.049,8.013.146.486,0,.534-.049.534-.389,0-.389-.049-.437-.534-.486-4.371-.243-4.614-1.02-4.614-4.419Zm0-13.161c0-3.4.486-3.934,2.817-3.934,5.731,0,7.965,2.331,7.965,8.062,0,5.1-2.671,7.916-8.6,7.916a11.522,11.522,0,0,1-2.185-.146Z" transform="translate(139.421 120.607)" fill="#fff"/>
      <path id="パス_28" data-name="パス 28" d="M14.833-101.411h.583L24.206-88.3a58.96,58.96,0,0,1,3.06,5.1c1.36-.049,3.4-.049,5-.049,1.457,0,3.885.049,6.216.146.437,0,.486-.049.486-.389,0-.389-.049-.437-.486-.486-3.157-.34-3.545-.534-6.216-4.419L20.515-105.587l5.342-5.391a42.117,42.117,0,0,1,6.508-5.536A14.86,14.86,0,0,1,37.61-118.6c.437-.1.486-.1.486-.437,0-.389-.049-.437-.486-.437-2.525.1-5.051.146-6.751.146-1.748,0-4.128,0-6.508-.049-.486,0-.534.049-.534.437,0,.34.049.389.534.437,2.72.243,3.351.874,3.351,2.137,0,1.02-.874,2.185-4.031,5.439l-8.3,8.5h-.534v-11.7c0-3.448.534-4.225,4.517-4.468.437-.049.486-.1.486-.437,0-.389-.049-.437-.486-.437-2.137.1-5.245.146-7.965.146-2.671,0-5.634-.049-7.916-.146-.437,0-.486.049-.486.437,0,.34.049.389.486.437,4.371.291,4.614,1.02,4.614,4.468V-88.4c0,3.4-.534,4.177-4.419,4.419-.437.049-.486.1-.486.486,0,.34.049.389.486.389,2.088-.1,5.148-.146,7.77-.146,2.671,0,5.731.049,8.062.146.437,0,.486-.049.486-.389,0-.389-.049-.486-.486-.486-4.468-.243-4.662-1.02-4.662-4.419Z" transform="translate(169.395 120.45)" fill="#fff"/>
      <path id="パス_29" data-name="パス 29" d="M19.532-100.486c3.108,1.214,4.517,2.234,5.585,3.642a7.4,7.4,0,0,1,1.506,4.905,6.6,6.6,0,0,1-1.8,4.905,6,6,0,0,1-4.468,1.8,9.989,9.989,0,0,1-6.168-2.477A21.057,21.057,0,0,1,8.6-95.532a.518.518,0,0,0-.437-.34c-.389,0-.631.146-.631.534a72.162,72.162,0,0,0,1.6,9.519,31.189,31.189,0,0,0,10.1,1.748c4.419,0,7.382-1.214,9.664-3.4a10.739,10.739,0,0,0,3.254-7.819,10.5,10.5,0,0,0-2.331-7.285c-1.554-1.943-3.642-3.254-7.479-4.711l-3.3-1.263c-2.477-.923-3.545-1.651-4.419-2.817a6,6,0,0,1-1.214-3.982,5.727,5.727,0,0,1,1.7-4.225,5.887,5.887,0,0,1,4.079-1.457c1.991,0,3.691.826,5.536,2.817a23.233,23.233,0,0,1,4.322,6.993c.1.243.146.389.389.389.437,0,.68-.146.68-.534-.291-2.525-.728-6.993-1.068-9.907a17.554,17.554,0,0,1-2.623.243,14.017,14.017,0,0,1-3.011-.534,14.612,14.612,0,0,0-4.371-.583,12.363,12.363,0,0,0-7.868,2.768,9.182,9.182,0,0,0-3.108,6.8,10.123,10.123,0,0,0,1.8,6.313c1.263,1.845,3.06,3.157,6.459,4.517Z" transform="translate(197.802 122.455)" fill="#fff"/>
      <path id="パス_30" data-name="パス 30" d="M29.622-114.135a10.874,10.874,0,0,1-.583-2.72c0-1.02.583-1.554,3.4-1.748.437-.049.486-.049.486-.437s-.049-.437-.486-.437c-2.477.1-5.245.146-7.382.146-1.943,0-3.837-.049-6.216-.146-.437,0-.486.049-.486.437,0,.34.049.389.486.437,2.72.437,2.914.631,3.982,4.711l.631,2.428c-.437,1.554-.923,3.108-1.457,5L18.84-95c-.34,1.263-.486,2.185-.874,3.594-.437-1.36-.631-2.331-.971-3.545l-5.051-19.183a11.406,11.406,0,0,1-.486-2.72c0-.874.68-1.554,3.594-1.748.486-.049.534-.1.534-.437,0-.389-.049-.437-.486-.437-2.283.1-5.1.146-7.333.146-2.137,0-4.225-.049-6.653-.146-.437,0-.486.049-.486.389,0,.389.049.437.486.486,2.38.34,2.623.583,3.691,4.468L10.778-92.28c1.068,3.934,1.8,6.556,2.574,9.665.1.291.194.389.486.389l3.545-1.506c.631-2.623,1.311-4.905,2.38-8.79l3.594-12.821c.291-1.117.583-2.234.971-3.691.389,1.408.631,2.38.971,3.691L28.893-92.28c1.166,4.177,1.894,6.8,2.623,9.665.049.243.194.389.534.389L35.6-83.684c.583-2.574,1.214-5.051,2.185-8.887l3.594-14.181c1.457-5.682,2.283-8.013,3.254-9.47a5.6,5.6,0,0,1,3.108-2.38c.437-.1.486-.146.486-.486s-.049-.389-.486-.389c-1.748.1-3.06.146-4.857.146-1.845,0-3.934-.049-6.119-.146-.437,0-.486.049-.486.437,0,.34.049.389.486.437,2.865.34,3.982,1.554,3.982,3.788a35.043,35.043,0,0,1-1.166,7.868L36.809-95.194c-.291,1.214-.486,2.428-.826,3.788-.437-1.408-.728-2.525-1.02-3.545Z" transform="translate(66.157 120.45)" fill="#fff"/>
      <path id="パス_31" data-name="パス 31" d="M33.205-104.108c0,3.254.049,5.925.049,8.45,0,4.371-.874,6.7-2.477,8.4a8.867,8.867,0,0,1-6.9,2.768,10.045,10.045,0,0,1-7.091-2.428c-1.894-1.894-2.38-3.934-2.38-8.887,0-2.623.049-5.1.049-8.013v-10.344c0-3.448.534-4.225,4.662-4.468.437-.049.486-.1.486-.437,0-.389-.049-.437-.486-.437-2.088.1-5.391.146-8.013.146-2.428,0-5.925-.049-8.11-.146-.437,0-.486.049-.486.437,0,.34.049.389.486.437,4.419.291,4.662,1.02,4.662,4.468v10.3c0,3.205-.1,6.848-.1,9.859,0,3.837.777,6.265,2.914,8.11,2.865,2.477,6.6,3.642,11.85,3.642a12.793,12.793,0,0,0,9.13-3.254c2.38-2.234,3.594-5.2,3.594-9.422,0-2.914.049-6.022.1-9.179l.049-3.06c.049-4.711.534-7.868,1.748-9.616a4.444,4.444,0,0,1,3.108-1.845c.437-.049.486-.146.486-.486s-.049-.389-.486-.389c-1.6.1-4.079.194-5.974.194-1.845,0-4.662-.1-6.362-.194-.437-.049-.486.049-.486.437,0,.34.049.389.486.437a5.615,5.615,0,0,1,4.031,1.943c1.263,1.651,1.457,4.662,1.457,9.519Z" transform="translate(31.139 120.487)" fill="#fff"/>
    </g>
  </g>
</svg>
