<svg xmlns="http://www.w3.org/2000/svg" width="24" height="22.857" viewBox="0 0 24 22.857">
  <path id="ico_swipe" d="M91.143-896a3.2,3.2,0,0,1-1.2-.229,3.041,3.041,0,0,1-1.03-.686l-5.943-5.943.429-.629a1.681,1.681,0,0,1,.814-.643,1.692,1.692,0,0,1,1.043-.043l2.743.743v-9.714a.827.827,0,0,1,.248-.611.837.837,0,0,1,.614-.246.82.82,0,0,1,.609.246.836.836,0,0,1,.243.611v12l-3.543-.943,3.977,3.977a1.291,1.291,0,0,0,.456.295,1.494,1.494,0,0,0,.539.1H96a2.759,2.759,0,0,0,2.029-.829,2.759,2.759,0,0,0,.829-2.029v-5.143a.827.827,0,0,1,.248-.611.837.837,0,0,1,.614-.246.82.82,0,0,1,.609.246.836.836,0,0,1,.243.611v5.143a4.4,4.4,0,0,1-1.343,3.229A4.4,4.4,0,0,1,96-896Zm.486-8.286v-4.857a.827.827,0,0,1,.248-.611.837.837,0,0,1,.614-.246.82.82,0,0,1,.609.246.836.836,0,0,1,.243.611v4.857Zm3.6,0V-908a.827.827,0,0,1,.248-.611.837.837,0,0,1,.614-.246.82.82,0,0,1,.609.246.836.836,0,0,1,.243.611v3.714ZM93.914-901.286Zm8.943-12.429H97.714v-1.143h3.8a17.417,17.417,0,0,0-4.7-2.929,13.8,13.8,0,0,0-5.386-1.071,13.8,13.8,0,0,0-5.386,1.071,17.417,17.417,0,0,0-4.7,2.929h3.8v1.143H80v-5.143h1.143v2.657a18.57,18.57,0,0,1,4.829-2.786A14.882,14.882,0,0,1,91.429-920a14.882,14.882,0,0,1,5.457,1.014,18.57,18.57,0,0,1,4.829,2.786v-2.657h1.143Z" transform="translate(-896 -80) rotate(90)" fill="#f8f8f8"/>
</svg>
