<svg xmlns="http://www.w3.org/2000/svg" width="440" height="488" viewBox="0 0 440 488">
  <g id="img_service02_03" transform="translate(-280 -1972)">
    <g id="グループ_98" data-name="グループ 98" transform="translate(-160 -168)">
      <path id="長方形_43" data-name="長方形 43" d="M0,0H1V1H0ZM5,0H6V1H5Zm5,0h1V1H10Zm5,0h1V1H15Zm5,0h1V1H20Zm5,0h1V1H25Zm5,0h1V1H30Zm5,0h1V1H35Zm5,0h1V1H40Zm5,0h1V1H45Zm5,0h1V1H50Zm5,0h1V1H55Zm5,0h1V1H60Zm5,0h1V1H65Zm5,0h1V1H70Zm5,0h1V1H75Zm5,0h1V1H80Zm5,0h1V1H85Zm5,0h1V1H90Zm5,0h1V1H95Zm5,0h1V1h-1Zm5,0h1V1h-1Zm5,0h1V1h-1Zm5,0h1V1h-1Zm4,0h1V1h-1Zm0,5h1V6h-1Zm0,5h1v1h-1Zm0,5h1v1h-1Zm0,5h1v1h-1Zm0,5h1v1h-1Zm0,5h1v1h-1Zm0,5h1v1h-1Zm0,5h1v1h-1Zm0,5h1v1h-1Zm0,5h1v1h-1Zm0,5h1v1h-1Zm0,4h1v1h-1Zm-5,0h1v1h-1Zm-5,0h1v1h-1Zm-5,0h1v1h-1Zm-5,0h1v1H99Zm-5,0h1v1H94Zm-5,0h1v1H89Zm-5,0h1v1H84Zm-5,0h1v1H79Zm-5,0h1v1H74Zm-5,0h1v1H69Zm-5,0h1v1H64Zm-5,0h1v1H59Zm-5,0h1v1H54Zm-5,0h1v1H49Zm-5,0h1v1H44Zm-5,0h1v1H39Zm-5,0h1v1H34Zm-5,0h1v1H29Zm-5,0h1v1H24Zm-5,0h1v1H19Zm-5,0h1v1H14ZM9,59h1v1H9ZM4,59H5v1H4ZM0,59H1v1H0Zm0-5H1v1H0Zm0-5H1v1H0Zm0-5H1v1H0Zm0-5H1v1H0Zm0-5H1v1H0Zm0-5H1v1H0Zm0-5H1v1H0Zm0-5H1v1H0Zm0-5H1v1H0ZM0,9H1v1H0ZM0,4H1V5H0Z" transform="translate(440 2184)" fill="#fff"/>
      <text id="入居" transform="translate(480 2222)" fill="#fff" font-size="20" font-family="HiraginoSans-W6, Hiragino Sans"><tspan x="0" y="0">入居</tspan></text>
      <rect id="長方形_62" data-name="長方形 62" width="240" height="60" transform="translate(640 2184)" fill="#1c1c1c"/>
      <path id="長方形_62_-_アウトライン" data-name="長方形 62 - アウトライン" d="M1,1V59H239V1H1M0,0H240V60H0Z" transform="translate(640 2184)" fill="#f8f8f8"/>
      <text id="_" data-name="+" transform="translate(592 2225)" fill="#fff" font-size="32" font-family="FiraSans-Regular, Fira Sans"><tspan x="0" y="0">+</tspan></text>
      <text id="セミナー等" transform="translate(720 2220)" fill="#f8f8f8" font-size="16" font-family="HiraginoSans-W6, Hiragino Sans"><tspan x="0" y="0">セミナー等</tspan></text>
      <text id="初年度の売上が不安定_事業以外のリソース必要_組織の拡大に苦戦" data-name="初年度の売上が不安定
事業以外のリソース必要
組織の拡大に苦戦" transform="translate(440 2283)" fill="#fff" font-size="16" font-family="HiraginoSans-W4, Hiragino Sans"><tspan x="0" y="0">初年度の売上が不安定</tspan><tspan y="0" font-family="Roboto-Medium, Roboto" font-weight="500"></tspan><tspan x="0" y="24">事業以外のリソース必要</tspan><tspan y="24" font-family="Roboto-Medium, Roboto" font-weight="500"></tspan><tspan x="0" y="48">組織の拡大に苦戦</tspan></text>
      <text id="他社の場合" transform="translate(440 2158)" fill="#fff" font-size="20" font-family="HiraginoSans-W4, Hiragino Sans"><tspan x="0" y="0">他社の場合</tspan></text>
    </g>
    <g id="グループ_164" data-name="グループ 164" transform="translate(-160 74)">
      <path id="長方形_43-2" data-name="長方形 43" d="M0,0H1V1H0ZM5,0H6V1H5Zm5,0h1V1H10Zm5,0h1V1H15Zm5,0h1V1H20Zm5,0h1V1H25Zm5,0h1V1H30Zm5,0h1V1H35Zm5,0h1V1H40Zm5,0h1V1H45Zm5,0h1V1H50Zm5,0h1V1H55Zm5,0h1V1H60Zm5,0h1V1H65Zm5,0h1V1H70Zm5,0h1V1H75Zm5,0h1V1H80Zm5,0h1V1H85Zm5,0h1V1H90Zm5,0h1V1H95Zm5,0h1V1h-1Zm5,0h1V1h-1Zm5,0h1V1h-1Zm5,0h1V1h-1Zm4,0h1V1h-1Zm0,5h1V6h-1Zm0,5h1v1h-1Zm0,5h1v1h-1Zm0,5h1v1h-1Zm0,5h1v1h-1Zm0,5h1v1h-1Zm0,5h1v1h-1Zm0,5h1v1h-1Zm0,5h1v1h-1Zm0,5h1v1h-1Zm0,5h1v1h-1Zm0,4h1v1h-1Zm-5,0h1v1h-1Zm-5,0h1v1h-1Zm-5,0h1v1h-1Zm-5,0h1v1H99Zm-5,0h1v1H94Zm-5,0h1v1H89Zm-5,0h1v1H84Zm-5,0h1v1H79Zm-5,0h1v1H74Zm-5,0h1v1H69Zm-5,0h1v1H64Zm-5,0h1v1H59Zm-5,0h1v1H54Zm-5,0h1v1H49Zm-5,0h1v1H44Zm-5,0h1v1H39Zm-5,0h1v1H34Zm-5,0h1v1H29Zm-5,0h1v1H24Zm-5,0h1v1H19Zm-5,0h1v1H14ZM9,59h1v1H9ZM4,59H5v1H4ZM0,59H1v1H0Zm0-5H1v1H0Zm0-5H1v1H0Zm0-5H1v1H0Zm0-5H1v1H0Zm0-5H1v1H0Zm0-5H1v1H0Zm0-5H1v1H0Zm0-5H1v1H0Zm0-5H1v1H0ZM0,9H1v1H0ZM0,4H1V5H0Z" transform="translate(440 2184)" fill="#fff"/>
      <text id="入居-2" data-name="入居" transform="translate(480 2222)" fill="#fff" font-size="20" font-family="HiraginoSans-W6, Hiragino Sans"><tspan x="0" y="0">入居</tspan></text>
      <rect id="長方形_62-2" data-name="長方形 62" width="240" height="60" transform="translate(640 2184)" fill="#f8f8f8"/>
      <path id="長方形_62_-_アウトライン-2" data-name="長方形 62 - アウトライン" d="M1,1V59H239V1H1M0,0H240V60H0Z" transform="translate(640 2184)" fill="#f8f8f8"/>
      <rect id="長方形_63" data-name="長方形 63" width="240" height="60" transform="translate(640 2256)" fill="#f8f8f8"/>
      <path id="長方形_63_-_アウトライン" data-name="長方形 63 - アウトライン" d="M1,1V59H239V1H1M0,0H240V60H0Z" transform="translate(640 2256)" fill="#f8f8f8"/>
      <rect id="長方形_64" data-name="長方形 64" width="240" height="60" transform="translate(640 2326)" fill="#f8f8f8"/>
      <path id="長方形_64_-_アウトライン" data-name="長方形 64 - アウトライン" d="M1,1V59H239V1H1M0,0H240V60H0Z" transform="translate(640 2326)" fill="#f8f8f8"/>
      <text id="_2" data-name="+" transform="translate(592 2225)" fill="#fff" font-size="32" font-family="FiraSans-Regular, Fira Sans"><tspan x="0" y="0">+</tspan></text>
      <text id="仕事の提供" transform="translate(760 2220)" fill="#0f0f0f" font-size="16" font-family="HiraginoSans-W6, Hiragino Sans"><tspan x="-40" y="0">仕事の提供</tspan></text>
      <text id="バックオフィス業務の受託" transform="translate(760 2292)" fill="#0f0f0f" font-size="16" font-family="HiraginoSans-W6, Hiragino Sans"><tspan x="-95.76" y="0">バックオフィス業務の受託</tspan></text>
      <text id="組織拡大のコンサルティング" transform="translate(760 2362)" fill="#0f0f0f" font-size="16" font-family="HiraginoSans-W6, Hiragino Sans"><tspan x="-103.6" y="0">組織拡大のコンサルティング</tspan></text>
      <text id="初年度の売上が安定_事業に集中_組織も拡大" data-name="初年度の売上が安定
事業に集中
 組織も拡大" transform="translate(440 2334)" fill="#fff" font-size="16" font-family="HiraginoSans-W4, Hiragino Sans"><tspan x="0" y="0">初年度の売上が安定</tspan><tspan y="0" font-family="Roboto-Medium, Roboto" font-weight="500"></tspan><tspan x="0" y="24">事業に集中</tspan><tspan y="24" font-family="Roboto-Medium, Roboto" font-weight="500"></tspan><tspan font-family="Roboto-Medium, Roboto" font-weight="500"><tspan x="0" y="48"> </tspan><tspan y="48" font-family="HiraginoSans-W4, Hiragino Sans" font-weight="400">組織も拡大</tspan></tspan></text>
      <text id="NUWORKSの場合" transform="translate(440 2158)" fill="#fff" font-size="20" font-family="Roboto-Medium, Roboto" font-weight="500"><tspan x="0" y="0">NUWORKS</tspan><tspan y="0" font-family="HiraginoSans-W4, Hiragino Sans" font-weight="400">の場合</tspan></text>
    </g>
    <path id="線_24" data-name="線 24" d="M440,.5H0v-1H440Z" transform="translate(280 2189)" fill="#888"/>
  </g>
</svg>
