<svg xmlns="http://www.w3.org/2000/svg" xmlns:xlink="http://www.w3.org/1999/xlink" width="2710.438" height="361" viewBox="0 0 2710.438 361">
  <defs>
    <clipPath id="clip-path">
      <rect x="1" width="2710.438" height="361" fill="none"/>
    </clipPath>
  </defs>
  <g id="txt_KV" transform="translate(-1)" clip-path="url(#clip-path)" style="isolation: isolate">
    <path id="パス_33" data-name="パス 33" d="M311.05,6.882h19.237l1.649-285.252c0-37.924,8.794-48.366,34.626-50.565l15.389-2.2,1.649-8.794H259.936l1.649,8.794,15.939,2.2c31.878,2.748,40.672,11.542,40.672,47.817l.55,181.374H317.1L125.829-339.927H3.264l1.649,8.794,11.542,3.3c21.435,3.847,36.824,18.687,47.817,37.924L62.623-57.423C62.623-20.049,54.378-9.606,28-7.408l-15.389,2.2L10.959,3.584H135.172l-1.649-8.794-16.489-2.2C85.707-10.156,76.363-18.4,76.363-54.675l-.55-228.092h1.649Zm276.458,6.046c91.237,0,132.458-51.114,133.008-138.5l1.1-152.794c0-37.924,8.794-48.366,34.626-50.565l15.389-2.2,1.649-8.794H649.065l1.649,8.794,16.489,2.2c31.328,2.748,40.672,11.542,40.672,47.817l.55,152.244c0,76.4-34.076,112.672-96.733,112.672-62.107,0-95.084-34.626-95.084-106.626V-319.591c0-4.4,6.046-7.695,23.634-9.344l23.084-2.2,1.649-8.794H397.34l1.649,8.794,18.687,2.2c24.733,1.649,27.481,3.847,27.481,7.695v214.9C445.157-23.9,492.424,12.928,587.508,12.928Zm344.061-3.3h21.985l91.786-241.282h1.649L1132.729,9.63h21.435L1241-232.751c29.679-81.893,34.076-90.687,67.053-96.183l9.893-1.649,1.649-9.344H1193.188l1.649,9.344,13.74,1.649c47.267,6.046,45.069,20.336,19.236,95.084L1173.4-78.309h-2.2l-70.9-207.756c-12.092-34.626-9.893-41.771,16.488-43.42l18.687-1.1,1.649-9.344H966.745l1.649,9.344,18.137,2.2c21.435,1.649,28.031,12.641,42.87,52.763l9.343,26.931-65.4,173.13h-2.2L895.294-287.713c-10.992-32.427-10.992-40.122,15.389-41.771l19.237-1.1,1.649-9.344H763.386l1.649,9.344,15.939,2.2c22.534,2.2,27.481,9.893,43.969,52.763Zm560.061,1.649c104.427,0,190.168-81.344,190.168-179.725,0-106.626-76.947-178.626-184.672-178.626-103.878,0-190.168,82.443-190.168,180.275C1306.958-60.721,1383.356,11.279,1491.63,11.279Zm4.4-12.092c-67.053,0-111.573-61.008-111.573-168.183,0-110.473,40.672-165.985,108.275-165.985,65.954,0,110.473,61.557,110.473,168.183C1603.2-55.774,1563.081-.812,1496.027-.812Zm212.7,4.4h169.282l-1.649-8.794-19.786-2.2c-19.237-1.649-27.481-3.847-27.481-8.244V-167.9c6.6,2.748,23.634,4.947,30.779,6.6l81.893,145.649,9.893,19.237h115.42l-2.2-8.794-8.794-1.649c-23.634-2.748-32.427-11.542-54.962-46.718l-71.45-112.672c51.115-12.092,82.992-45.069,82.992-87.389,0-56.611-46.718-86.84-139.6-86.84l-163.786.55,1.649,8.794,18.137,2.2c25.282,2.2,28.58,3.847,28.58,8.244V-17.3c0,4.4-9.893,8.244-24.183,9.893l-23.084,2.2Zm149.5-178.076c-6.6,0-22.534-2.748-29.13-4.4v-149.5s20.885-.55,21.985-.55c54.962-1.1,85.74,28.58,85.74,77.5C1936.821-201.973,1907.142-176.141,1858.226-174.492Zm220.4,178.076h165.435l-1.649-8.794-18.138-2.2c-24.733-2.2-28.58-3.847-28.58-8.244V-138.217l36.274-36.275L2299.02-61.82c25.282,43.42,24.733,52.214,2.2,54.412l-10.992,2.2-1.1,8.794h160.488l-1.649-8.794-10.443-1.649c-20.885-2.2-28.031-7.145-50.565-45.069L2280.882-223.408l21.985-21.435c64.305-65.4,76.947-80.244,113.221-84.092l14.84-2.2,1.649-8.794h-147.3l1.1,8.794,17.038,2.2c41.771,4.947,45.618,18.137-21.984,86.84l-85.74,87.939V-319.041c0-3.847,6.6-8.244,24.183-9.893l23.084-2.2,1.649-8.794H2079.172l1.649,8.794,15.939,2.2c25.283,2.2,28.031,3.847,28.031,8.244V-17.3c0,4.4-6.046,7.695-23.634,9.893l-20.885,2.2Zm505.1,7.145c78.6,0,129.71-53.863,129.71-112.672,0-63.206-43.969-87.939-103.878-108.824-43.969-15.389-79.695-30.229-79.695-69.8,0-30.229,24.733-54.412,62.656-54.412,22.534,0,39.023,6.046,52.214,14.29l39.573,79.145h12.092l-1.649-101.679-24.183,7.695c-19.786-5.5-45.618-11.542-75.847-11.542-72.55,0-118.168,46.718-118.168,101.679,0,57.71,43.969,80.244,97.832,99.481,47.817,16.489,84.641,32.977,84.641,78.046,0,38.473-25.832,65.954-72,66.5-35.175,0-62.107-14.84-81.893-45.069l-23.084-54.412h-13.191L2474.9-7.408A304.517,304.517,0,0,0,2583.722,10.729Z" transform="translate(-2.662 347.572)" fill="#0f0f0f" stroke="rgba(0,0,0,0)" stroke-width="1"/>
    <path id="パス_34" data-name="パス 34" d="M311.05,6.882h19.237l1.649-285.252c0-37.924,8.794-48.366,34.626-50.565l15.389-2.2,1.649-8.794H259.936l1.649,8.794,15.939,2.2c31.878,2.748,40.672,11.542,40.672,47.817l.55,181.374H317.1L125.829-339.927H3.264l1.649,8.794,11.542,3.3c21.435,3.847,36.824,18.687,47.817,37.924L62.623-57.423C62.623-20.049,54.378-9.606,28-7.408l-15.389,2.2L10.959,3.584H135.172l-1.649-8.794-16.489-2.2C85.707-10.156,76.363-18.4,76.363-54.675l-.55-228.092h1.649Zm276.458,6.046c91.237,0,132.458-51.114,133.008-138.5l1.1-152.794c0-37.924,8.794-48.366,34.626-50.565l15.389-2.2,1.649-8.794H649.065l1.649,8.794,16.489,2.2c31.328,2.748,40.672,11.542,40.672,47.817l.55,152.244c0,76.4-34.076,112.672-96.733,112.672-62.107,0-95.084-34.626-95.084-106.626V-319.591c0-4.4,6.046-7.695,23.634-9.344l23.084-2.2,1.649-8.794H397.34l1.649,8.794,18.687,2.2c24.733,1.649,27.481,3.847,27.481,7.695v214.9C445.157-23.9,492.424,12.928,587.508,12.928Zm344.061-3.3h21.985l91.786-241.282h1.649L1132.729,9.63h21.435L1241-232.751c29.679-81.893,34.076-90.687,67.053-96.183l9.893-1.649,1.649-9.344H1193.188l1.649,9.344,13.74,1.649c47.267,6.046,45.069,20.336,19.236,95.084L1173.4-78.309h-2.2l-70.9-207.756c-12.092-34.626-9.893-41.771,16.488-43.42l18.687-1.1,1.649-9.344H966.745l1.649,9.344,18.137,2.2c21.435,1.649,28.031,12.641,42.87,52.763l9.343,26.931-65.4,173.13h-2.2L895.294-287.713c-10.992-32.427-10.992-40.122,15.389-41.771l19.237-1.1,1.649-9.344H763.386l1.649,9.344,15.939,2.2c22.534,2.2,27.481,9.893,43.969,52.763Zm560.061,1.649c104.427,0,190.168-81.344,190.168-179.725,0-106.626-76.947-178.626-184.672-178.626-103.878,0-190.168,82.443-190.168,180.275C1306.958-60.721,1383.356,11.279,1491.63,11.279Zm4.4-12.092c-67.053,0-111.573-61.008-111.573-168.183,0-110.473,40.672-165.985,108.275-165.985,65.954,0,110.473,61.557,110.473,168.183C1603.2-55.774,1563.081-.812,1496.027-.812Zm212.7,4.4h169.282l-1.649-8.794-19.786-2.2c-19.237-1.649-27.481-3.847-27.481-8.244V-167.9c6.6,2.748,23.634,4.947,30.779,6.6l81.893,145.649,9.893,19.237h115.42l-2.2-8.794-8.794-1.649c-23.634-2.748-32.427-11.542-54.962-46.718l-71.45-112.672c51.115-12.092,82.992-45.069,82.992-87.389,0-56.611-46.718-86.84-139.6-86.84l-163.786.55,1.649,8.794,18.137,2.2c25.282,2.2,28.58,3.847,28.58,8.244V-17.3c0,4.4-9.893,8.244-24.183,9.893l-23.084,2.2Zm149.5-178.076c-6.6,0-22.534-2.748-29.13-4.4v-149.5s20.885-.55,21.985-.55c54.962-1.1,85.74,28.58,85.74,77.5C1936.821-201.973,1907.142-176.141,1858.226-174.492Zm220.4,178.076h165.435l-1.649-8.794-18.138-2.2c-24.733-2.2-28.58-3.847-28.58-8.244V-138.217l36.274-36.275L2299.02-61.82c25.282,43.42,24.733,52.214,2.2,54.412l-10.992,2.2-1.1,8.794h160.488l-1.649-8.794-10.443-1.649c-20.885-2.2-28.031-7.145-50.565-45.069L2280.882-223.408l21.985-21.435c64.305-65.4,76.947-80.244,113.221-84.092l14.84-2.2,1.649-8.794h-147.3l1.1,8.794,17.038,2.2c41.771,4.947,45.618,18.137-21.984,86.84l-85.74,87.939V-319.041c0-3.847,6.6-8.244,24.183-9.893l23.084-2.2,1.649-8.794H2079.172l1.649,8.794,15.939,2.2c25.283,2.2,28.031,3.847,28.031,8.244V-17.3c0,4.4-6.046,7.695-23.634,9.893l-20.885,2.2Zm505.1,7.145c78.6,0,129.71-53.863,129.71-112.672,0-63.206-43.969-87.939-103.878-108.824-43.969-15.389-79.695-30.229-79.695-69.8,0-30.229,24.733-54.412,62.656-54.412,22.534,0,39.023,6.046,52.214,14.29l39.573,79.145h12.092l-1.649-101.679-24.183,7.695c-19.786-5.5-45.618-11.542-75.847-11.542-72.55,0-118.168,46.718-118.168,101.679,0,57.71,43.969,80.244,97.832,99.481,47.817,16.489,84.641,32.977,84.641,78.046,0,38.473-25.832,65.954-72,66.5-35.175,0-62.107-14.84-81.893-45.069l-23.084-54.412h-13.191L2474.9-7.408A304.517,304.517,0,0,0,2583.722,10.729Z" transform="translate(2987.506 347.572)" fill="#0f0f0f" stroke="rgba(0,0,0,0)" stroke-width="1"/>
  </g>
</svg>
